<?xml version="1.0" encoding="UTF-8" standalone="no"?>
<!-- Created with Inkscape (http://www.inkscape.org/) -->

<svg
   xmlns:dc="http://purl.org/dc/elements/1.1/"
   xmlns:cc="http://creativecommons.org/ns#"
   xmlns:rdf="http://www.w3.org/1999/02/22-rdf-syntax-ns#"
   xmlns:svg="http://www.w3.org/2000/svg"
   xmlns="http://www.w3.org/2000/svg"
   xmlns:sodipodi="http://sodipodi.sourceforge.net/DTD/sodipodi-0.dtd"
   xmlns:inkscape="http://www.inkscape.org/namespaces/inkscape"
   id="svg2"
   version="1.1"
   inkscape:version="0.91 r"
   xml:space="preserve"
   width="29.5375"
   height="29.5375"
   viewBox="0 0 29.5375 29.5375"
   sodipodi:docname="info.svg"><metadata
     id="metadata8"><rdf:RDF><cc:Work
         rdf:about=""><dc:format>image/svg+xml</dc:format><dc:type
           rdf:resource="http://purl.org/dc/dcmitype/StillImage" /><dc:title></dc:title></cc:Work></rdf:RDF></metadata><defs
     id="defs6" /><sodipodi:namedview
     pagecolor="#ffffff"
     bordercolor="#666666"
     borderopacity="1"
     objecttolerance="10"
     gridtolerance="10"
     guidetolerance="10"
     inkscape:pageopacity="0"
     inkscape:pageshadow="2"
     inkscape:window-width="640"
     inkscape:window-height="480"
     id="namedview4"
     showgrid="false"
     inkscape:zoom="7.9898433"
     inkscape:cx="14.76875"
     inkscape:cy="14.76875"
     inkscape:window-x="0"
     inkscape:window-y="0"
     inkscape:window-maximized="0"
     inkscape:current-layer="g10" /><g
     id="g10"
     inkscape:groupmode="layer"
     inkscape:label="ink_ext_XXXXXX"
     transform="matrix(1.25,0,0,-1.25,0,29.5375)"><g
       id="g12"
       transform="scale(0.1,0.1)"><path
         d="m 118.121,19.2969 c -54.6015,0 -98.8632,44.2656 -98.8632,98.8711 0,54.602 44.2617,98.863 98.8632,98.863 54.613,0 98.91,-44.261 98.91,-98.863 0,-54.6055 -44.297,-98.8711 -98.91,-98.8711 l 0,0 z m 0,216.9921 C 52.8906,236.289 0,183.398 0,118.168 0,52.8906 52.8906,0 118.121,0 c 65.238,0 118.168,52.8906 118.168,118.168 -0.039,65.23 -52.93,118.121 -118.168,118.121 l 0,0"
         style="fill:#ffffff;fill-opacity:1;fill-rule:nonzero;stroke:none"
         id="path14"
         inkscape:connector-curvature="0" /><path
         d="m 134.648,147.148 -33.238,0 0,-0.078 -12.3475,0 0,-19.3 12.3475,0 0,-68.9419 -13.0897,0 0,-18.4375 13.0897,0 0,-0.1172 33.238,0 0,0.1172 10.86,0 0,18.4375 -10.86,0 0,88.3199"
         style="fill:#ffffff;fill-opacity:1;fill-rule:nonzero;stroke:none"
         id="path16"
         inkscape:connector-curvature="0" /><path
         d="m 117.813,160.27 c 11.132,0 17.89,7.429 17.89,16.609 -0.195,9.371 -6.758,16.559 -17.461,16.559 -10.664,0 -17.691,-7.188 -17.691,-16.559 0,-9.18 6.789,-16.609 17.262,-16.609 l 0,0"
         style="fill:#ffffff;fill-opacity:1;fill-rule:nonzero;stroke:none"
         id="path18"
         inkscape:connector-curvature="0" /></g></g></svg>