<?xml version="1.0" encoding="utf-8"?>
<!DOCTYPE svg PUBLIC "-//W3C//DTD SVG 1.1//EN" "http://www.w3.org/Graphics/SVG/1.1/DTD/svg11.dtd">

<svg xmlns="http://www.w3.org/2000/svg" viewBox="0 0 370 480">
    <style>
        path{fill:#d8dde1}
    </style>
    <path class="hand" d="M370 266.11a40 40 0 0 0-40-39.93 39.92 39.92 0 0 0-22.49 6.9 40 40 0 0 0-40-39.43h-.05a39.85 39.85 0 0 0-25.36 9.06 40 40 0 0 0-37.11-25h-.05a39.88 39.88 0 0 0-22.47 6.9v-79.22a40 40 0 0 0-40-39.93 40 40 0 0 0-40 39.93v144.74l-.9-.84c-46.64-46.58-72.58-43.93-84.74-36.06-18.99 11.46-21.49 31.85-9.58 51.47l97.09 159.84a43.06 43.06 0 0 0 5.07 6.76c25.21 33.82 56.87 48.7 112.91 48.7 80.23 0 145.51-60.55 147.62-136h.06zM222.32 462.53c-53.18 0-81.46-14.52-102.39-46l-98.8-162.72c-6.09-10-5.62-18.68 5.06-25 7.36-4.38 29.93-2 58.67 26.72l35.07 33.6V103.35c0-11.28 10.08-20.42 22.5-20.42s22.5 9.14 22.5 20.42V274.8h17.52v-59.3c0-11.27 10.08-20.41 22.5-20.41s22.5 9.15 22.5 20.43v43.13H245v-27.12c0-11.27 10.07-20.41 22.49-20.41s22.5 9.14 22.5 20.42v43.31h17.52v-10.79c0-11.28 10.08-20.41 22.5-20.41s22.5 9.14 22.5 20.42v79.42c-1.85 66.03-59.98 119.04-130.19 119.04z"/>
    <path class="inner-ring" d="M198 151.1a72.5 72.5 0 1 0-112-.1v-33.16a57.49 57.49 0 1 1 112 .39z"/>
    <path class="outer-ring" d="M85.94 193.2v-18.44a90 90 0 1 1 128.57-16.16 36 36 0 0 1 14.28 5.84A105 105 0 1 0 85.94 193.2z"/>
</svg>
